<svg xmlns="http://www.w3.org/2000/svg" viewBox="0 0 50 50">
  <path
    fill="#37d5d3"
    d="M30.272 1.5651c-4.193 0-7.6178 3.425-7.6178 7.6179 0 1.0585.249 2.0134.6434 2.9267H13.874c-.934 0-1.7643.851-1.7643 1.7643v9.403c-.9133-.3737-1.889-.6227-2.9267-.6227-4.193 0-7.6179 3.4249-7.6179 7.6178 0 4.193 3.425 7.6178 7.6179 7.6178 1.0378 0 2.0134-.249 2.9267-.6435v9.4238c0 .934.8302 1.7643 1.7643 1.7643h32.7962c.9133 0 1.7643-.8302 1.7643-1.7643V33.78c0-.7265-.4981-1.4323-1.2039-1.6606-.7058-.249-1.536.0208-1.972.602-.7472.9963-1.9095 1.6605-3.2795 1.6605-2.2833 0-4.0892-1.8266-4.0892-4.1099 0-2.2832 1.806-4.0891 4.0892-4.0891 1.37 0 2.5323.6227 3.2796 1.619.4359.5812 1.2661.8511 1.972.6228.6849-.2284 1.2038-.9341 1.2038-1.6606v-12.89c0-.9134-.851-1.7644-1.7643-1.7644h-9.4238c.3945-.9133.6435-1.8682.6435-2.9267 0-4.193-3.4249-7.6179-7.6178-7.6179zm0 3.5287c2.2833 0 4.0892 1.8059 4.0892 4.0891 0 1.37-.6435 2.5324-1.6399 3.2797-.5811.4358-.851 1.2661-.6227 1.9719.249.685.9549 1.2039 1.6813 1.2039h11.1258v7.6386c-.8926-.3737-1.8681-.6227-2.9267-.6227-4.1722 0-7.6179 3.4249-7.6179 7.6178 0 4.193 3.4457 7.6178 7.6179 7.6178 1.0585 0 2.0341-.249 2.9267-.6435v7.6802H15.6175V33.78c.0208-.7265-.4981-1.4323-1.1831-1.6606-.7058-.249-1.536.0208-1.972.602-.7472.9963-1.9303 1.6605-3.2796 1.6605-2.2832 0-4.1099-1.8266-4.1099-4.1099 0-2.2832 1.8267-4.0891 4.11-4.0891 1.3492 0 2.5323.6227 3.2796 1.619.4358.5812 1.2661.8511 1.9511.6228.7058-.2284 1.2039-.9341 1.2039-1.6606V15.6384H26.764c.7265 0 1.4323-.519 1.6606-1.204.2491-.7057-.0207-1.536-.602-1.9719-.9963-.7472-1.6605-1.9097-1.6605-3.2796 0-2.2833 1.8266-4.0892 4.1099-4.0892z"
  />
</svg>
