<svg xmlns="http://www.w3.org/2000/svg" viewBox="0 0 50 50">
  <path
    fill="#02baff"
    d="M10.306 274.2276c-3.2802 0-5.9515 2.6708-5.9515 5.951v1.5431a.5553.5553 0 0 0 .555.5566h6.9391a.5553.5553 0 0 0 .555-.5566v-6.939a.5553.5553 0 0 0-.555-.555zm4.297 0a.5553.5553 0 0 0-.555.555v6.9391a.5553.5553 0 0 0 .555.5566h6.939a.5553.5553 0 0 0 .555-.5566v-1.543c0-3.2803-2.6712-5.951-5.9515-5.951zm-4.297 1.1116h.9881v5.828H5.464v-.9885c0-2.6802 2.162-4.8395 4.842-4.8395zm4.8515 0h.988c2.6802 0 4.8421 2.1593 4.8421 4.8395v.9885h-5.8301zm-10.248 8.6423a.5553.5553 0 0 0-.555.5566v1.543c0 3.2803 2.6713 5.9511 5.9516 5.9511h1.5425a.5553.5553 0 0 0 .555-.5545v-6.9396a.5553.5553 0 0 0-.555-.5566zm13.162 0c-2.2202 0-4.0235 1.8054-4.0235 4.0256 0 2.2203 1.8033 4.0251 4.0235 4.0251s4.0256-1.8048 4.0256-4.025c0-2.2203-1.8054-4.0257-4.0256-4.0257zM5.464 285.0931h5.8301v5.828h-.988c-2.6802 0-4.8421-2.1598-4.8421-4.84zm12.6075 0c1.6243 0 2.9161 1.2898 2.9161 2.914 0 1.6243-1.2918 2.914-2.9161 2.914s-2.914-1.2897-2.914-2.914c0-1.6242 1.2897-2.914 2.914-2.914z"
    transform="translate(-7.9633 -680.6589) scale(2.49235)"
  />
</svg>
